<svg width="16" height="16" viewBox="0 0 16 16" fill="none" xmlns="http://www.w3.org/2000/svg">
<path d="M11.536 15.02C12.3265 14.2317 12.9535 13.2949 13.3808 12.2635C13.8081 11.2321 14.0274 10.1264 14.026 9.01C14.0274 7.89359 13.8081 6.78791 13.3808 5.75651C12.9535 4.72511 12.3265 3.78833 11.536 3L10.828 3.707C11.5255 4.40259 12.0787 5.22917 12.4557 6.13924C12.8328 7.04931 13.0262 8.02492 13.025 9.01C13.025 11.081 12.185 12.956 10.828 14.313L11.536 15.02V15.02Z" fill="#13131F"/>
<path d="M10.121 13.606C10.7255 13.0031 11.2049 12.2867 11.5316 11.498C11.8584 10.7093 12.026 9.86373 12.025 9.01C12.026 8.15626 11.8584 7.31074 11.5316 6.522C11.2049 5.73327 10.7255 5.01688 10.121 4.414L9.414 5.121C9.92548 5.63114 10.3311 6.23733 10.6076 6.90474C10.884 7.57214 11.0259 8.2876 11.025 9.01C11.0262 9.7325 10.8845 10.4481 10.6082 11.1157C10.3319 11.7833 9.92642 12.3897 9.415 12.9L10.121 13.606Z" fill="#13131F"/>
<path d="M8.707 12.192C9.12548 11.7746 9.45735 11.2786 9.68354 10.7325C9.90973 10.1865 10.0258 9.60106 10.025 9.01C10.0258 8.41894 9.90973 7.83355 9.68354 7.28747C9.45735 6.7414 9.12548 6.24541 8.707 5.828L8 6.535C8.32548 6.85967 8.5836 7.24546 8.7595 7.67021C8.93541 8.09495 9.02563 8.55027 9.025 9.01C9.02558 9.46972 8.93533 9.92502 8.75942 10.3498C8.58352 10.7745 8.32544 11.1603 8 11.485L8.707 12.192ZM6.717 4.56C6.80171 4.60081 6.8732 4.66468 6.92326 4.74427C6.97332 4.82387 6.99991 4.91597 7 5.01V13.01C6.99987 13.1041 6.97319 13.1962 6.92303 13.2758C6.87288 13.3554 6.80128 13.4193 6.71647 13.46C6.63166 13.5007 6.53708 13.5167 6.4436 13.5061C6.35011 13.4955 6.26152 13.4587 6.188 13.4L3.825 11.51H1.5C1.36739 11.51 1.24021 11.4573 1.14645 11.3636C1.05268 11.2698 1 11.1426 1 11.01V7.01C1 6.87739 1.05268 6.75021 1.14645 6.65645C1.24021 6.56268 1.36739 6.51 1.5 6.51H3.825L6.188 4.62C6.26157 4.56119 6.35026 4.52435 6.44385 4.51374C6.53744 4.50312 6.63212 4.51916 6.717 4.56V4.56Z" fill="#13131F"/>
</svg>
